REM DIRINDEX 1\2,1\3
REM DIRNAME folder01,folder02,folder03
TITLE ""
FILE "DISC1Track28.mp3" MP3
  TRACK 01 AUDIO
    TITLE "0:"
    INDEX 01 00:00:00
  TRACK 02 AUDIO
    TITLE "3:cjc133_1244"
    INDEX 01 00:00:17
  TRACK 03 AUDIO
    TITLE "0:"
    INDEX 01 00:01:54
  TRACK 04 AUDIO
    TITLE "2:cjc133_1245"
    INDEX 01 00:02:24
  TRACK 05 AUDIO
    TITLE "2:cjc133_1246"
    INDEX 01 00:04:27
  TRACK 06 AUDIO
    TITLE "2:cjc133_1247"
    INDEX 01 00:06:67
  TRACK 07 AUDIO
    TITLE "0:"
    INDEX 01 00:08:44
  TRACK 08 AUDIO
    TITLE "2:cjc133_1248"
    INDEX 01 00:09:16
  TRACK 09 AUDIO
    TITLE "2:cjc133_1249"
    INDEX 01 00:10:23
  TRACK 10 AUDIO
    TITLE "2:cjc133_1250"
    INDEX 01 00:13:02
  TRACK 11 AUDIO
    TITLE "0:"
    INDEX 01 00:14:68
  TRACK 12 AUDIO
    TITLE "2:cjc133_1251"
    INDEX 01 00:15:46
  TRACK 13 AUDIO
    TITLE "2:cjc133_1252"
    INDEX 01 00:17:06
  TRACK 14 AUDIO
    TITLE "2:cjc133_1253"
    INDEX 01 00:19:62
  TRACK 15 AUDIO
    TITLE "0:"
    INDEX 01 00:21:47
  TRACK 16 AUDIO
    TITLE "2:cjc133_1254"
    INDEX 01 00:22:27
  TRACK 17 AUDIO
    TITLE "2:cjc133_1255"
    INDEX 01 00:23:50
  TRACK 18 AUDIO
    TITLE "2:cjc133_1256"
    INDEX 01 00:26:67
  TRACK 19 AUDIO
    TITLE "0:"
    INDEX 01 00:29:23
  TRACK 20 AUDIO
    TITLE "2:cjc133_1257"
    INDEX 01 00:29:72
  TRACK 21 AUDIO
    TITLE "2:cjc133_1258"
    INDEX 01 00:31:57
  TRACK 22 AUDIO
    TITLE "2:cjc133_1259"
    INDEX 01 00:35:12
  TRACK 23 AUDIO
    TITLE "0:"
    INDEX 01 00:37:50
  TRACK 24 AUDIO
    TITLE "2:cjc133_1260"
    INDEX 01 00:38:24
  TRACK 25 AUDIO
    TITLE "2:cjc133_1261"
    INDEX 01 00:39:74
  TRACK 26 AUDIO
    TITLE "2:cjc133_1262"
    INDEX 01 00:43:27
  TRACK 27 AUDIO
    TITLE "0:"
    INDEX 01 00:45:59
  TRACK 28 AUDIO
    TITLE "2:cjc133_1263"
    INDEX 01 00:46:31
  TRACK 29 AUDIO
    TITLE "2:cjc133_1264"
    INDEX 01 00:47:72
  TRACK 30 AUDIO
    TITLE "2:cjc133_1265"
    INDEX 01 00:51:42
  TRACK 31 AUDIO
    TITLE "0:"
    INDEX 01 00:54:17
  TRACK 32 AUDIO
    TITLE "2:cjc133_1266"
    INDEX 01 00:54:64
  TRACK 33 AUDIO
    TITLE "2:cjc133_1267"
    INDEX 01 00:57:09
  TRACK 34 AUDIO
    TITLE "2:cjc133_1268"
    INDEX 01 01:00:62
  TRACK 35 AUDIO
    TITLE "0:"
    INDEX 01 01:03:47
  TRACK 36 AUDIO
    TITLE "2:cjc133_1269"
    INDEX 01 01:04:25
  TRACK 37 AUDIO
    TITLE "2:cjc133_1270"
    INDEX 01 01:07:15
  TRACK 38 AUDIO
    TITLE "2:cjc133_1271"
    INDEX 01 01:10:26
  TRACK 39 AUDIO
    TITLE "0:"
    INDEX 01 01:12:48
  TRACK 40 AUDIO
    TITLE "2:cjc133_1272"
    INDEX 01 01:13:24
  TRACK 41 AUDIO
    TITLE "2:cjc133_1273"
    INDEX 01 01:15:40
  TRACK 42 AUDIO
    TITLE "2:cjc133_1274"
    INDEX 01 01:18:54
  TRACK 43 AUDIO
    TITLE "0:"
    INDEX 01 01:20:71
  TRACK 44 AUDIO
    TITLE "2:cjc133_1275"
    INDEX 01 01:21:51
  TRACK 45 AUDIO
    TITLE "2:cjc133_1276"
    INDEX 01 01:23:24
  TRACK 46 AUDIO
    TITLE "2:cjc133_1277"
    INDEX 01 01:26:50
  TRACK 47 AUDIO
    TITLE "0:"
    INDEX 01 01:29:11
  TRACK 48 AUDIO
    TITLE "2:cjc133_1278"
    INDEX 01 01:29:60
  TRACK 49 AUDIO
    TITLE "2:cjc133_1279"
    INDEX 01 01:32:60
  TRACK 50 AUDIO
    TITLE "2:cjc133_1280"
    INDEX 01 01:36:11
  TRACK 51 AUDIO
    TITLE "0:"
    INDEX 01 01:38:45
  TRACK 52 AUDIO
    TITLE "2:cjc133_1281"
    INDEX 01 01:39:19
  TRACK 53 AUDIO
    TITLE "2:cjc133_1282"
    INDEX 01 01:41:56
  TRACK 54 AUDIO
    TITLE "2:cjc133_1283"
    INDEX 01 01:44:73
  TRACK 55 AUDIO
    TITLE "0:"
    INDEX 01 01:47:23
  TRACK 56 AUDIO
    TITLE "2:cjc133_1284"
    INDEX 01 01:48:01
  TRACK 57 AUDIO
    TITLE "2:cjc133_1285"
    INDEX 01 01:50:56
  TRACK 58 AUDIO
    TITLE "2:cjc133_1286"
    INDEX 01 01:54:27
  TRACK 59 AUDIO
    TITLE "0:"
    INDEX 01 01:57:02
  TRACK 60 AUDIO
    TITLE "2:cjc133_1287"
    INDEX 01 01:57:51
  TRACK 61 AUDIO
    TITLE "2:cjc133_1288"
    INDEX 01 02:00:29
  TRACK 62 AUDIO
    TITLE "2:cjc133_1289"
    INDEX 01 02:03:34
  TRACK 63 AUDIO
    TITLE "0:"
    INDEX 01 02:05:48
